/* XPM */
static char *graphic[] = {
/* width height num_colors chars_per_pixel */
"32 32 490 2", 
/* colors */
"   c None",
".  c #868786",
"X  c #B4B5B8",
"o  c None",
"O  c #F2F2F3",
"+  c None",
"@  c #A8A9A8",
"#  c None",
"$  c #3E3F3D",
"%  c #AAAAAA",
"&  c #999A9A",
"*  c #E3E3E5",
"=  c #B0B1B3",
"-  c #EEEEEE",
";  c #9B9B9C",
":  c #363735",
">  c #BDBDBE",
",  c #DFDFE0",
"<  c #C3C4C7",
"1  c #CECFD0",
"2  c #757575",
"3  c #D9DAD9",
"4  c #4D4E4C",
"5  c #646565",
"6  c #3C3E3C",
"7  c #FBFCFB",
"8  c #B9B9B9",
"9  c #B4B5B9",
"0  c #9D9EA0",
"q  c #D0D0D2",
"w  c None",
"e  c #BFC0C2",
"r  c #DBDBDB",
"t  c #FDFDFD",
"y  c #717170",
"u  c #ECEDED",
"i  c #606160",
"p  c None",
"a  c #363735",
"s  c #3A3B39",
"d  c #D7D7D6",
"f  c #888A8B",
"g  c #5C5D5B",
"h  c #363734",
"j  c #DFDFE1",
"k  c #363735",
"l  c #C8C8C8",
"z  c #CECFD1",
"x  c #EAEAEA",
"c  c None",
"v  c None",
"b  c None",
"n  c #FBFCFC",
"m  c #363735",
"M  c #B3B4B3",
"N  c #FDFDFE",
"B  c None",
"V  c #4B4B4A",
"C  c #F9F9F9",
"Z  c #363735",
"A  c #EAEAEB",
"S  c #808080",
"D  c #A2A2A2",
"F  c #585957",
"G  c #6F7070",
"H  c #C4C4C4",
"J  c #CACBCD",
"K  c #E6E6E6",
"L  c None",
"P  c #363736",
"I  c #6B6C6B",
"U  c #F7F8F8",
"Y  c #CCCCCF",
"T  c #3B3B3A",
"R  c #BBBCBF",
"E  c #F9F9FA",
"W  c #6D6D6D",
"Q  c None",
"!  c #454644",
"~  c #D1D2D1",
"^  c None",
"/  c #898A88",
"(  c #F5F5F5",
")  c #D9DADC",
"_  c #696968",
"`  c #E4E5E5",
"'  c #585958",
"]  c None",
"[  c None",
"{  c #E6E6E7",
"}  c None",
"|  c #7C7C7C",
" . c #D5D6D7",
".. c #9E9E9E",
"X. c None",
"o. c #A4A5A7",
"O. c None",
"+. c #E2E2E2",
"@. c #C6C7C9",
"#. c #373B36",
"$. c #F3F4F4",
"%. c #B1B1B2",
"&. c #3C3D39",
"*. c #676867",
"=. c None",
"-. c #3B3B3B",
";. c #898A89",
":. c #B7B8BB",
">. c #F5F5F6",
",. c #3C3D3C",
"<. c #3B3B3A",
"1. c #E4E5E6",
"2. c #414240",
"3. c #636462",
"4. c #ADADAD",
"5. c #3B3B3B",
"6. c #CFCFCF",
"7. c #F1F1F1",
"8. c None",
"9. c None",
"0. c #393A38",
"q. c #989998",
"w. c #C6C7CA",
"e. c #CBCBCA",
"r. c None",
"t. c #787878",
"y. c #676868",
"u. c #D3D3D5",
"i. c #727371",
"p. c #C2C3C5",
"a. c None",
"s. c None",
"d. c #747473",
"f. c #393A39",
"g. c #EFF0F0",
"h. c #C4C4C7",
"j. c #B3B4B7",
"k. c None",
"l. c #F1F1F2",
"z. c #3D3E3C",
"x. c #E0E1E2",
"c. c #393A38",
"v. c #EBECEB",
"b. c #818280",
"n. c #D1D2D4",
"m. c #EDEDED",
"M. c None",
"N. c None",
"B. c #3D3D3B",
"V. c #393A38",
"C. c #A5A5A4",
"Z. c #C2C3C6",
"A. c #3C3D3C",
"S. c #747474",
"D. c #4C4D4B",
"F. c #393A38",
"G. c #BEBFC1",
"H. c #393A38",
"J. c #FCFCFC",
"K. c None",
"L. c #5F605F",
"P. c #EBECEC",
"I. c #393A38",
"U. c None",
"Y. c #A3A4A3",
"T. c #EDEDEE",
"R. c #393A38",
"E. c #616161",
"W. c None",
"Q. c #DCDDDE",
"!. c #C5C6C5",
"~. c #A5A5A5",
"^. c #949595",
"/. c #616363",
"(. c #DEDEE0",
"). c #E9E9E9",
"_. c None",
"`. c #4C4D4C",
"'. c None",
"]. c #3C3D3C",
"[. c #FAFBFB",
"{. c #858687",
"}. c #9C9DA0",
"|. c #6E6F6E",
" X c None",
".X c None",
"XX c #909190",
"oX c #C9CACB",
"OX c #FCFCFD",
"+X c #EBECED",
"@X c None",
"#X c #5F6060",
"$X c #3D3D3D",
"%X c #A3A4A4",
"&X c #F8F8F8",
"*X c #353634",
"=X c None",
"-X c #383934",
";X c #353634",
":X c #373737",
">X c #ABACAF",
",X c #575856",
"<X c #C3C3C3",
"1X c #DADADC",
"2X c #C9CACC",
"3X c #E5E5E5",
"4X c #7B7B7A",
"5X c None",
"6X c #F6F7F7",
"7X c #6A6B6A",
"8X c #8C8D8C",
"9X c #BABBBE",
"0X c #6C6C6C",
"qX c None",
"wX c #B0B0B0",
"eX c #F4F4F4",
"rX c #686867",
"tX c None",
"yX c #797A79",
"uX c #F6F5F6",
"iX c #9B9C9B",
"pX c #E5E5E6",
"aX c #646462",
"sX c #BDBEBD",
"dX c None",
"fX c #BABBBF",
"gX c #BFBFBF",
"hX c #555554",
"jX c #C5C6C8",
"kX c #868886",
"lX c #C7C7CA",
"zX c #F2F3F3",
"xX c #666766",
"cX c #999998",
"vX c #888988",
"bX c #B6B7BA",
"nX c #3D3D3D",
"mX c #F4F4F5",
"MX c #40413F",
"NX c None",
"BX c #3B3E3B",
"VX c #626361",
"CX c #F0F0F0",
"ZX c #D4D5D7",
"AX c #3B3E3B",
"SX c None",
"DX c #383937",
"FX c #E1E1E2",
"GX c None",
"HX c #B4B6B9",
"JX c #383938",
"KX c #4F504E",
"LX c None",
"PX c None",
"IX c #B6B7BB",
"UX c #C1C2C4",
"YX c None",
"TX c #A1A1A4",
"RX c #FFFFFF",
"EX c #737372",
"WX c None",
"QX c #959594",
"!X c #848584",
"~X c #B2B3B6",
"^X c #B7B7B6",
"/X c #3C3D3B",
"(X c None",
")X c #F0F0F1",
"_X c None",
"`X c #383937",
"'X c #868686",
"]X c #B4B4B8",
"[X c None",
"{X c #3E3E3D",
"}X c #ECECEC",
"|X c #DBDCDC",
" o c None",
".o c #88898A",
"Xo c #FDFEFE",
"oo c #3D3D3C",
"Oo c #C1C2C5",
"+o c None",
"@o c #3B3E3B",
"#o c None",
"$o c None",
"%o c #B5B6B5",
"&o c #737373",
"*o c #626363",
"=o c #B7B7B7",
"-o c #6D6E6C",
";o c #383937",
":o c #CECED0",
">o c None",
",o c #BDBEC0",
"<o c #D9D9D9",
"1o c None",
"2o c #FBFBFB",
"3o c #6F6F6E",
"4o c #EAEBEB",
"5o c #5E5F5E",
"6o c None",
"7o c #CACACB",
"8o c #ECECED",
"9o c #3C3E3C",
"0o c #A2A3A2",
"qo c #DBDCDD",
"wo c #A4A4A4",
"eo c #393D39",
"ro c #C6C6C6",
"to c #363634",
"yo c #6D6E6D",
"uo c #F9FAFA",
"io c #393D39",
"po c #383938",
"ao c #BDBEC1",
"so c #8F908F",
"do c #FBFBFC",
"fo c #474846",
"go c #D9DBDC",
"ho c #F7F7F7",
"jo c None",
"ko c #E6E7E7",
"lo c #8D8D8C",
"zo c #AAABAE",
"xo c #7C7D7C",
"co c #9E9F9E",
"vo c #E8E8E9",
"bo c #565755",
"no c #C2C2C2",
"mo c #E4E4E4",
"Mo c #CACACD",
"No c #F5F6F6",
"Bo c #9C9C9B",
"Vo c #A2A3A4",
"Co c #BEBEBD",
"Zo c #B9BABD",
"Ao c #6B6B6B",
"So c #F7F7F8",
"Do c #F1F2F1",
"Fo c None",
"Go c #D7D8DA",
"Ho c #F3F3F3",
"Jo c #676766",
"Ko c #3B3C3A",
"Lo c #787978",
"Po c #E4E4E5",
"Io c #BCBDBC",
"Uo c None",
"Yo c #B9BABE",
"To c #C4C5C7",
"Ro c #969795",
"Eo c #767675",
"Wo c #3C3E3B",
"Qo c None",
"!o c #C6C6C9",
"~o c #656665",
"^o c #F1F2F2",
"/o c #BABAB9",
"(o c #B5B6B9",
")o c #878887",
"_o c #F3F3F4",
"`o c None",
"'o c None",
"]o c #3F403E",
"[o c #898989",
"{o c #B7B7BB",
"}o c #CBCCCB",
"|o c #ABABAB",
" O c #EFEFEF",
".O c #393938",
"XO c #747574",
"oO c None",
"OO c #989898",
"+O c #D1D1D3",
"@O c #393939",
"#O c #C0C1C3",
"$O c None",
"%O c None",
"&O c #FEFEFE",
"*O c None",
"=O c #373837",
"-O c #393938",
";O c #EDEEEE",
":O c #949493",
">O c #B1B2B5",
",O c #3B3C3A",
"<O c #C7C8C7",
"1O c #858585",
"2O c None",
"3O c #3B3C3A",
"4O c #A7A7A7",
"5O c #7F807E",
"6O c #3C3C3C",
"7O c #CFD0D2",
"8O c #EBEBEB",
"9O c #5F5F5E",
"0O c None",
"qO c #707170",
"wO c #FCFDFD",
"eO c #393938",
"rO c #929392",
"tO c #5F6160",
"yO c #C0C1C4",
"uO c #3C3C3C",
"iO c #3B3D3B",
"pO c #393B39",
"aO c #4A4B49",
"sO c #616262",
"dO c #393939",
"fO c #9A9B9D",
"gO c #D8D8D8",
"hO c #383C38",
"jO c #6E6E6D",
"kO c #FAFAFA",
"lO c None",
"zO c #E9EAEA",
"xO c #BEBEC1",
"cO c #5D5E5D",
"vO c #3C3C3B",
"bO c #FCFBFC",
"nO c #7F807F",
"mO c #3A3D3A",
"MO c #EBEBEC",
"NO c None",
"BO c None",
"VO c #595A58",
"CO c #3C3C3B",
"ZO c #CBCCCE",
"AO c #E7E7E7",
"SO c #7D7D7C",
"DO c #8E8F8E",
"FO c #BCBDC0",
"GO c #FAFAFB",
"HO c #3C3C3A",
"JO c #909090",
"KO c #E9EAEB",
"LO c #686967",
"PO c #7F8080",
"IO c None",
"UO c #F6F6F6",
"YO c #595A59",
"TO c #424340",
"RO c #C5C5C6",
"EO c None",
"WO c #9D9E9D",
"QO c #D6D7D8",
"!O c #3C3C3B",
"~O c #BFC0BF",
"^O c #555654",
"/O c #E1E2E1",
"(O c None",
")O c #3C3C3B",
"_O c #D8D8DA",
"`O c #777876",
"'O c #C1C1C1",
"]O c None",
"[O c #E3E3E3",
"{O c #C9C9CC",
"}O c #F4F5F5",
"|O c #B8B9BC",
" + c #3A3B39",
".+ c #F6F6F7",
"X+ c #6A6A6A",
"o+ c #8C8C8C",
"O+ c #424341",
"++ c #3C3C3B",
"@+ c #D0D0D0",
"#+ c #3D3E3A",
"$+ c #F2F2F2",
"%+ c #D6D7D9",
"&+ c #666665",
"*+ c #E1E2E2",
"=+ c #8E8F90",
"-+ c None",
";+ c #777877",
":+ c None",
">+ c #E3E3E4",
",+ c None",
"<+ c #797979",
"1+ c #BBBCBB",
"2+ c #686969",
"3+ c #BDBDBD",
"4+ c #D4D4D6",
"5+ c #A1A2A4",
"6+ c None",
"7+ c #C3C4C6",
"8+ c None",
"9+ c #424342",
"0+ c #F0F1F1",
"q+ c #7B7C7D",
/* pixels */
"                    o =X'o=.} ^ SXEOv GX%Oo                     ",
"                _.s.9.,.hO-X`XV.V.`XDXT nX#o1o_.                ",
"            o M.$oCOeOs `.3.yX. 'XLoVXD.pO#.vOO.qXo             ",
"          _.B uOV.MXjO4.3 u eXhoho$.u gO|oI ]oeO6O.XYX          ",
"        ,+BO5.I.aX/o- 2oJ.kOU 6X6XU C 2o2ou =oi I.-.p Fo        ",
"      WXb f.6 vX` [.[.7., 7O!o7+Z.lXgo&Xt bOGO*+!X/X<.dX_.      ",
"    # w HO{Xq.CXn eXQOao>O=+{.{..o& Y.Io&XJ.E n  OrOz.!Ojoo     ",
"    8+oos DO0+n +XToj.bXTX^OkXo+o+8X~oEoFXn.2XT.7 g./ R.Wo:+    ",
"  (X[XP -ozO[.8O,o(oOo_O; ;.ho2o2oho[o.ofXX ~Xe CXn korXm ]OWX  ",
"  PX5.! <O[.zXMo1 { ho( SOM RXRXRX- y.}.IX9X{O, .+N [.no9+mO8.  ",
"YX-+;o5O$.J.UOO J.RX&O+.LOr RXRXRX~ E.xO) ;OkORX&O2odo$+LoP 0O# ",
"'.Wo]ogXdot RX&OC 4oGoVoyo$+RXRXRX% | <Xd &Odo)XQ.ZO)Xdo8 z.6OX.",
"*O.OVOAOn 2o)Xqo@.|O:.q+QXt RXRX&X| KX4 %o* Y R 9 ~X1XJ.[OhX@ON.",
"lOc.`OHoC u.9XX X X 9X5 3+RXRXRXCXiXD 5o= {o]XX bX#Oj 2o7.y a Qo",
"+ ;o^.kO>.aoj.bXUX4+7oxX/ORXRXRXt UO%o/.bXHXFO:o1.Not t &Xlom Uo",
"r.;X%Xt )Xp.z pXA C.xX1O( RXRX&Or rOYOf J (.$+J.RX&OC 2oJ.WOZ K.",
"]O;Xwot C eXJ.RXrocO8 - &ORXRXUO<+&o> MOkORXRXkO8o%+oX_oOXcoZ LX",
"IO;oOO[.t RXuoT.soJO).&XRXRXRXmo_ |XRXRX&OmXx.Mo9Xj.G.NoE som (O",
"NOk 4XeXdoPow.9X5o&+Lox RXRXRXsX9OgXl 'O%.5+fO0 >X:.z C O XO:X$O",
"2O: g ).doZXj.zo2+L.4XhoRXRXRX^XJo3o|.W AoI 7XV ~.A C J.K F =O6+",
"+o&.2.!.do8oh.+O, 'X4ORXRXRXRX&X7.7.7.7.DoDor *.<oRXXodo~O]oAX'.",
"_.[X*X)oUO2oC t m.0X6.RXRXRXRXRXRXRXRXRXRXRXH qO4okOwO}Ob.;o]OYX",
"  U.JXaO@+do&OGORO' wXsXsX3+3+3+3+3+3+sXCosXS POq _o2o}ofoio>o  ",
"  @X9oH.;+T.n )XVotOsOsOX+S.2 2 2 Eot.G 5 *o#Xo.A 2ov.i.F.iO,+  ",
"    N.@o3OBo}O[.vojXY >+CXeX( Ho}X|X:oUXZo:.< A n HoRo,O#+`o    ",
"    5X} 0.TO@ $.n hokORX&OSoKO .yO(oj.j.Yon.l.n zX0oMXf.c 5X    ",
"      @XNXdOO+cXP.2oJ.t So%+UX9XR e @._OT.uo[.x :OMX-Ok.]       ",
"        =X oKo,OEXe.$.dodoho>.^o^ouX&XJ.dozX<O3os ++_X%O        ",
"          @XtXvOpofonOCo3XzXE J.J.C $+mo1+xo! ;o].Q ,+          ",
"            5X8.B.)O;o]o,Xd.XX..WOsoEXbo$ P eo$X`o5X            ",
"                @X XW.A. +:Xm h tom :X@OBXK.oO,+                ",
"                    _.'. XtXL 6o6o[ QooOa.YX                    "
};
