/* XPM */
static char *graphic[] = {
/* width height num_colors chars_per_pixel */
"16 16 186 2", 
/* colors */
"   c None",
".  c None",
"X  c None",
"o  c None",
"O  c #AAAAAA",
"+  c #3E3E3C",
"@  c #3E3E3C",
"#  c #EEEEEE",
"$  c #FDFDFD",
"%  c #999A9B",
"&  c None",
"*  c #D7D7D6",
"=  c #A4A5A4",
"-  c #EEEEEF",
";  c None",
":  c #959696",
">  c #484B48",
",  c #EAEAEA",
"<  c #3E403E",
"1  c #424240",
"2  c None",
"3  c #3E403E",
"4  c #ECEDEE",
"5  c #CCCCCE",
"6  c #BBBCBE",
"7  c #D7D7D7",
"8  c #7A7B79",
"9  c #F9F9F9",
"0  c None",
"q  c #B1B1B0",
"w  c #A0A1A0",
"e  c #4A4A49",
"r  c #70746F",
"t  c #C2C3C2",
"y  c #A2A2A2",
"u  c None",
"i  c #C4C4C4",
"p  c #4C4D4C",
"a  c #636462",
"s  c None",
"d  c #B1B1B1",
"f  c #C2C3C3",
"g  c #E6E6E7",
"h  c None",
"j  c #F3F4F4",
"k  c #ABACAB",
"l  c #E4E5E6",
"z  c #EFF0EF",
"x  c #F1F1F1",
"c  c #BABBBA",
"v  c #BCBCBC",
"b  c #D3D3D5",
"n  c None",
"m  c #C2C3C5",
"M  c #C4C4C7",
"N  c #62635E",
"B  c #D1D2D4",
"V  c #EDEDED",
"C  c #DEDEDF",
"Z  c #B6B7B6",
"A  c #DCDDDE",
"S  c #C5C6C5",
"D  c None",
"F  c #D8D9D9",
"G  c #797A78",
"H  c #F8F8F8",
"J  c #E9E9EA",
"K  c #A1A1A1",
"L  c #C3C3C3",
"P  c #DADADC",
"I  c #E5E5E5",
"U  c #666766",
"Y  c #797A79",
"T  c #797A79",
"R  c #4D4D4D",
"E  c #B0B0B0",
"W  c None",
"Q  c #F4F4F4",
"!  c #C1C2C2",
"~  c #777776",
"^  c None",
"/  c #E5E5E6",
"(  c #D4D5D6",
")  c #9D9D9D",
"_  c None",
"`  c #626362",
"'  c #D0D1D1",
"]  c #9FA0A1",
"[  c #AAABAA",
"{  c #797A7A",
"}  c #CECECE",
"|  c #E1E1E2",
" . c #AAABAB",
".. c #FFFFFF",
"X. c None",
"o. c #C3C3C6",
"O. c #EEEFEF",
"+. c #F0F0F1",
"@. c #BDBEBF",
"#. c None",
"$. c #6F6F6E",
"%. c #A8A8A8",
"&. c #BFBFC1",
"*. c #424340",
"=. c #979898",
"-. c #B9BABA",
";. c #D9D9D9",
":. c #BDBEC0",
">. c #EAEBEB",
",. c #ECECED",
"<. c #DBDCDD",
"1. c #C4C5C4",
"2. c #BDBEC1",
"3. c #EAEBEC",
"4. c #D3D4D3",
"5. c #4C4C4B",
"6. c #A2A3A3",
"7. c #676766",
"8. c #B9BABC",
"9. c #C4C5C5",
"0. c None",
"q. c #444443",
"w. c #C0C1C0",
"e. c #A0A0A0",
"r. c #8F9090",
"t. c #C2C2C2",
"y. c #9C9C9B",
"u. c #636362",
"i. c #ADAEAD",
"p. c #E6E7E8",
"a. c #444444",
"s. c None",
"d. c #E2E3E3",
"f. c None",
"g. c #9C9C9C",
"h. c #DEDFDE",
"j. c #BEBEBE",
"k. c #C4C5C7",
"l. c None",
"z. c #F3F3F4",
"x. c #4D4E4A",
"c. c #EFEFEF",
"v. c None",
"b. c #3F3F3C",
"n. c #E0E0E1",
"m. c #DADBDA",
"M. c #D1D1D3",
"N. c None",
"B. c #FEFEFE",
"V. c #EDEEEE",
"C. c #DEDFE0",
"Z. c #A7A7A7",
"A. c None",
"S. c #E0E0E2",
"D. c #969797",
"F. c #3F413F",
"G. c #3D403D",
"H. c #CDCDCF",
"J. c #D8D8D8",
"K. c None",
"L. c #FAFAFA",
"P. c None",
"I. c #7F807F",
"U. c #C9C9CA",
"Y. c None",
"T. c #C3C4C3",
"R. c #4B4B4A",
"E. c #D2D3D2",
"W. c #5E625E",
"Q. c #777876",
"!. c #454645",
"~. c #D4D4D4",
"^. c None",
"/. c #E7E7E8",
"(. c #60615F",
"). c #C7C8CA",
"_. c #4B4B4B",
"`. c #F6F6F7",
"'. c #434343",
"]. c #AEAEAE",
"[. c None",
"{. c #F2F2F2",
"}. c #E1E2E2",
"|. c #9F9FA0",
" X c None",
".X c #F0F1F1",
/* pixels */
"      . D f.@ *.1 + & n         ",
"    X.A.e r w -.-.e.$.> f.X.    ",
"  ^.o N v >.p.<.C .X+.c (.h X.  ",
". 2 u.~.g ).% : g.y / >.E.W.l.. ",
"s _.w.,.( A %.{., : 2.B `.j.R.X ",
"0 G j 9 z.' c ..m.K I Q 3.V.Q.N.",
"3 k +.b m ] 4...} I.@.M o.4 %.< ",
"!.1.C.H.U.y # $ * =.k.S.{.9 ! '.",
"!.9.H x = J.B.# Z.}.j /.M.| t a.",
"G.i.4 6 { T...h.y.d 6.r.&.O.[ F.",
"u T - / Z ;.B.L.z c.# k I Q Y #.",
"v.R S `.|.) ].q E [ y D.J L p W ",
". Y.7.F d.}.V }.5 8.:.n.7 a P.. ",
"   Xs.U i Q j C.P l ,.t.` 0. X  ",
"     X; x.8  .f t O ~ 5.K.^     ",
"      . [.P.F.a.q.b._ W .       "
};
