/* XPM */
static char *_558550966643[] = {
/* columns rows colors chars-per-pixel */
"64 64 60 1 ",
"  c #4A0BBC",
". c #4F12BE",
"X c #5215BF",
"o c #5318C0",
"O c #591FC2",
"+ c #5D25C3",
"@ c #5F28C4",
"# c #632DC5",
"$ c #6631C6",
"% c #6834C7",
"& c #6A36C8",
"* c #6D3AC9",
"= c #703ECA",
"- c #7343CB",
"; c #7748CD",
": c #7A4CCE",
"> c #7D50CF",
", c #7F53D0",
"< c #8155D0",
"1 c #855BD2",
"2 c #885FD3",
"3 c #8B63D4",
"4 c #8F69D6",
"5 c #926CD6",
"6 c #9571D7",
"7 c #9672D8",
"8 c #9975D9",
"9 c #9D7BDA",
"0 c #A07EDC",
"q c #A283DD",
"w c #A688DE",
"e c #A98BDF",
"r c #AB8EE0",
"t c #AE92E1",
"y c #B196E2",
"u c #B49BE3",
"i c #B89FE5",
"p c #BAA3E6",
"a c #BFA9E7",
"s c #C0AAE7",
"d c #C2ADE8",
"f c #C5B2E9",
"g c #C8B6EB",
"h c #CEBDED",
"j c #D0BFED",
"k c #D3C4EF",
"l c #D5C6F0",
"z c #D7C9F0",
"x c #DBCEF1",
"c c #DDD2F2",
"v c #E1D6F4",
"b c #E5DBF5",
"n c #E9E1F7",
"m c #ECE6F8",
"M c #EEE9F9",
"N c #F2EDFA",
"B c #F6F3FC",
"V c #F8F6FC",
"C c #FFFFFF",
"Z c None",
/* pixels */
"ZZZZZZZZZZZZZZZZZZZZZZZZZZZ>>>>>>>>>>ZZZZZZZZZZZZZZZZZZZZZZZZZZZ",
"ZZZZZZZZZZZZZZZZZZZZZZZ>>>>>>>>>>>>>>>:,>ZZZZZZZZZZZZZZZZZZZZZZZ",
"ZZZZZZZZZZZZZZZZZZZZ>>>>>>>>>>>>>>>>>>,:>>>>ZZZZZZZZZZZZZZZZZZZZ",
"ZZZZZZZZZZZZZZZZZZ>>>>>>>>>>>>>>>>>>>>>,>>>>>>ZZZZZZZZZZZZZZZZZZ",
"ZZZZZZZZZZZZZZZZ>>>>>>>>>>>>>>>>>>>>:,>>>>>>>>>>ZZZZZZZZZZZZZZZZ",
"ZZZZZZZZZZZZZZ>>>>>>>>>>>>:::>>>>>>>::,>>,>>>>>>>>ZZZZZZZZZZZZZZ",
"ZZZZZZZZZZZZZ>>>>>:>>>>>>,<-%%,,,>*$-<:,>:>>>>>>>>>ZZZZZZZZZZZZZ",
"ZZZZZZZZZZZZ>>>>>>,>>>>>>%rbf6%;;$5fbt&:>>>>>>>>>>>>>ZZZZZZZZZZZ",
"ZZZZZZZZZZ>>>>>>>>>>>>>>:-<CCCa##pCCC2=>>>>>>>>>>>>>>>ZZZZZZZZZZ",
"ZZZZZZZZZ>>>>>>>>>>>,:>>,,#gCCCw9CCCj$:>>>>>,:>>>>>>>>>ZZZZZZZZZ",
"ZZZZZZZZ>>>>>>>>>>>>>>>>:,$rCCCCCCCCy#>>>>>>>>>>>>>>>>>>ZZZZZZZZ",
"ZZZZZZZZ>>>>:>>>>>>>>>>>>>%9CCCCCCCCw$>>>>>>>>>>>>>>>>>>>ZZZZZZZ",
"ZZZZZZZ>>>>>,>>>>>>>>>>>>>$wCCCCCCCCt#>>>>>>>>>>:>>>>>>>>ZZZZZZZ",
"ZZZZZZ>>>>>>>>>>>>>>>>>>>>#gCCCCCCCCk#,:>>>>>>>>,>>>>>>>>>ZZZZZZ",
"ZZZZZ>>>>>>>>>>>>>:>>>,><$1CCCCCCCCCC3$<>,:>>>>>>>>>>>>>>>>ZZZZZ",
"ZZZZZ>>,:>>>>>>>>>,>>>:,-#vCCCCCCCCCCb%-<:,>>>>>>>>>>>>>>>>ZZZZZ",
"ZZZZ>>>>:,>>>>>>>>>>>>>:#fCCCCCcxCCCCCj#:>>>>>>>>>>>>>>>>>>>ZZZZ",
"ZZZZ>>>>>>>>>>>>>>>>>>>+rCCCCCC--CCCCCCy+>>>>>>>>>>>>>>>>>>>>ZZZ",
"ZZZ>>>>>>>>>>>>>>>>,:>#7CCCCCV3#$8CCCCCC9@>>>>>>>>>>>>:,>>:>>ZZZ",
"ZZZ>>>>>>>>>>>>>>>>:,#3CCCCCCVr#;#8CCCCCC4#>>>>>:>>>,:,,>>,>>ZZZ",
"ZZ>>>>>>>>>>>>>>>>><$<VCCCCCCCCi#;#8CCCCCC3#<>>>,>>>>>>:>>>>>>ZZ",
"ZZ>>>>>>>>>>:>>>>><$>VCCCCCCCCCCt+;#8CCCCCC<#<>>>>>>>>>>>>>>>>ZZ",
"ZZ>>>>>>>>>>,>>>><$;NCCCCC91CCCCCt+;#6CCCCCB>$<>>>>>>>>>>>>>>>>Z",
"Z>>>>,:>>>>>>>,:<%-MCCCCC9#O1BCCCCi#;#<MCCCCN:$>>>>>>>>>>>>>>>>Z",
"Z>>>>>>>>>>:>>><%-mCCCCC5#-#eVCCCCCp#;$;nCCCCM;$<>>>>,>>>>>>>>>Z",
"Z>>>>>>>>>>,>><**bCCCCC3#-@pCCCCCCCCa@;*-bCCCCm-&<>>>:>>>>>>>>>Z",
"Z>>>>>>>>>>>><=%cCCCCV3#-#aCCCClkCCCCd#-*-vCCCCb*=<:>>>>>,>>>>>Z",
">>>>>>>>>>>>>;#kCCCCN<$**hCCCM3##1nCCCk=***cCCCCz#;>>>>>>:>>>>>>",
">>>>>>>>>>:,,#uCCCCB:$*-cCCCC7+::+5CCCCb;&*&bCCCCp#>>>>>>>>>>>>>",
">>>>>>>>>>,<%1CCCCC1$*-nCCCCV-->:;-NCCCCm;**-NCCCC3$<>>>>>>,>>>>",
">>>>>>>>>>>:#xCCCCq#**bCCCCCV<$,>&:VCCCCCn-*#3CCCCv$:>>>>>>:>>>>",
">>>>:,>>>>,#9CCCCf#**bCCCCCCCk*::*gCCCCCCCb==#yCCCCw#>>>>>>>>>>>",
">>>>:>>>>>:%bCCCn%=$kCCCCwnCCCa$$uCCCNtCCCCx$-#cCCCn*;>>>>>>>>>>",
">>>>,>>>>>*5CCCC9#$rCCCCr <bCCp#$yCCm3 tCCCCy#&3CCCC6%>>>>>>>>>>",
">>>>>>>>>>#iCCCb&=;VCCCh+>.yCC9$*7CCu.:+jCCCC:-$xCCCa#>>>>>>>>>>",
">>>>>>>>>>%kCCCy##yCCCN--%7VCC3=-<VCB6%--NCCCu##eCCCx*:>>>>>>>>>",
">>>>>>>>>;;nCCC5%=bCCCw@;;VCCb-::=cCCB;;+rCCCn-*3CCCM:;:>>>>>>>>",
"Z>>>>>>>>-<VCCV,%1CCCB:-$pCCCaX;;XuCCCi$->BCCC3%;mCCC1->>>>>>>>Z",
"Z>>>>>>,:-1CCCm:$5CCCx*:#lCCCk<-;>hCCCk#:*cCCC8$-vCCC3*>>>>>>>>Z",
"Z>>>>>>:,-1VCCm:$5CCCc&:%wCCCCCnnCCCCCq%:&xCCC7%;vCCC3=>>>>>>>>Z",
"Z>>>>>>>>;>NCCV<%<VCCB:=:%fCCCCCCCCCCd%>*:VCCV1&:NCCV1->>>>>>>>Z",
"Z>>>>>>>>:-vCCC8%%xCCCa+,-%rbCCCCCCbe$;,+dCCCc*&5CCCn-;>>>>>>>>Z",
"ZZ>>>>>>>>$hCCCi#$eCCCC9+::#;8ugfy8;$::O9CCCCt##yCCCk$>>>>>>>>ZZ",
"ZZ>>>>>>>>#eCCCn*-*NCCCCq#%:;&$$%$*;:$#qCCCCB--%vCCCy#>>:,>>>>ZZ",
"ZZZ>>:,>>>;<CCCCq#%3CCCCCk7=$#%%%%##-6kCCCCC5%$8CCCC1-:>>>>>>ZZZ",
"ZZZ>>>>>>>:#gCCCm=-#qCCCCCCbftq88qtfbCCCCCCw#;%nCCCk#>>>>>>>>ZZZ",
"ZZZ>>>>>>>>=<CCCCk#-#5BCCCCCCCCCCCCCCCCCCV8#-@hCCCC1*>>>>>>>>ZZZ",
"ZZZZ>>>>>>>>+iCCCCp+;#>hCCCCCCCCCCCCCCCCh<#;+uCCCCs#>>>>>>>>ZZZZ",
"ZZZZZ>>>>>>>-%nCCCCp#**$5fMCCCCCCCCCCNg5%**#uCCCCm*;>>>>>>>ZZZZZ",
"ZZZZZ>>>>>>><&>VCCCCk<#-*$:8ihxbbxhi9:$&-#:kCCCCC,%>>>>>>>>ZZZZZ",
"ZZZZZZ>>>>>>><#3CCCCCCu;#*-%#%*--*%$%-*#-uVCCCCC4#,>>>>>>>ZZZZZZ",
"ZZZZZZZ>>>>>>:,#3BCCCCCNy3-$$%***&%$#=3yMCCCCCV7#,>>>>>>>ZZZZZZZ",
"ZZZZZZZ>>>>>>>>,$:xCCCCCCCbdt853358rdvCCCCCCCc<#>>>>>>>>>ZZZZZZZ",
"ZZZZZZZZ>>>>>>>><&&tVCCCCCCCCCCCCCCCCCCCCCCCu*%<>>>>>>>>ZZZZZZZZ",
"ZZZZZZZZZ>>>>>>>>,;#<aNCCCCCCCCCCCCCCCCCCBa<#-<>>>>>>>>ZZZZZZZZZ",
"ZZZZZZZZZZ>>>>>>>>>,*#:yvCCCCCCCCCCCCCCbu>#*<>>>>>>>>>ZZZZZZZZZZ",
"ZZZZZZZZZZZ>>>>>>>>>>>;#=3rslbmNNmbzdr3=#->>>>>>>>>>>ZZZZZZZZZZZ",
"ZZZZZZZZZZZZZ>>>>>>>>>>>:=#$%-;<,;-*$$=;>>>>>>>>>>>ZZZZZZZZZZZZZ",
"ZZZZZZZZZZZZZZ>>>>:,>>>>>>>>>;---;;:>>,>>>>>>>>>>>ZZZZZZZZZZZZZZ",
"ZZZZZZZZZZZZZZZZ,:,:>>>>>>>>>,>>>>,>>>>>>>>>>>>>ZZZZZZZZZZZZZZZZ",
"ZZZZZZZZZZZZZZZZZ,>,>>>>>>>>>>>>>>>>>>>>>>>>>>>ZZZZZZZZZZZZZZZZZ",
"ZZZZZZZZZZZZZZZZZZZZ>>>>>>>>>>>>>>>>>>>>>>>>ZZZZZZZZZZZZZZZZZZZZ",
"ZZZZZZZZZZZZZZZZZZZZZZ,>>>>>:,>>>>>>>>>>>>ZZZZZZZZZZZZZZZZZZZZZZ",
"ZZZZZZZZZZZZZZZZZZZZZZZZZZ>>>>>>>>>>>,ZZZZZZZZZZZZZZZZZZZZZZZZZZ"
};
