/* XPM */
static char *_558550987209[] = {
/* columns rows colors chars-per-pixel */
"16 16 121 2 ",
"   c #5E26C4",
".  c #6028C4",
"X  c #642EC6",
"o  c #642FC6",
"O  c #6631C6",
"+  c #6631C7",
"@  c #6732C6",
"#  c #6632C7",
"$  c #6834C7",
"%  c #6834C8",
"&  c #6935C8",
"*  c #6A36C8",
"=  c #6A37C8",
"-  c #6C38C8",
";  c #6C38C9",
":  c #6C39C9",
">  c #6C3AC9",
",  c #6D3AC9",
"<  c #6F3ECA",
"1  c #703ECA",
"2  c #7140CB",
"3  c #7141CB",
"4  c #7241CB",
"5  c #7242CB",
"6  c #7343CB",
"7  c #7443CC",
"8  c #7444CC",
"9  c #7646CC",
"0  c #7849CD",
"q  c #784ACD",
"w  c #7A4CCE",
"e  c #7B4ECE",
"r  c #7C4ECF",
"t  c #7D4FCF",
"y  c #7D50CF",
"u  c #7E51CF",
"i  c #7F53CF",
"p  c #7F52D0",
"a  c #7F53D0",
"s  c #8053D0",
"d  c #8054D0",
"f  c #875ED2",
"g  c #885ED3",
"h  c #8E67D5",
"j  c #8E68D5",
"k  c #8F68D5",
"l  c #9069D6",
"z  c #906AD6",
"x  c #936DD7",
"c  c #936ED7",
"v  c #946FD8",
"b  c #9571D8",
"n  c #9671D8",
"m  c #9672D8",
"M  c #9773D8",
"N  c #9773D9",
"B  c #9874D9",
"V  c #9875D9",
"C  c #9C79DA",
"Z  c #A485DD",
"A  c #A585DD",
"S  c #A586DE",
"D  c #A788DF",
"F  c #AB8EE0",
"G  c #AC8FE0",
"H  c #AC90E0",
"J  c #AD91E0",
"K  c #AF93E1",
"L  c #B094E2",
"P  c #B49AE3",
"I  c #B59BE4",
"U  c #B69DE4",
"Y  c #B79EE4",
"T  c #B79FE4",
"R  c #B8A0E5",
"E  c #B9A1E5",
"W  c #BBA5E6",
"Q  c #BDA7E7",
"!  c #BFA9E7",
"~  c #C1ABE8",
"^  c #C1ACE8",
"/  c #C2ACE8",
"(  c #C2ADE9",
")  c #C6B2EA",
"_  c #CAB8EC",
"`  c #CCBAEC",
"'  c #CEBDED",
"]  c #D0C0EE",
"[  c #D1C1EE",
"{  c #D3C5EF",
"}  c #D4C6EF",
"|  c #D6C8F0",
" . c #D7C9F0",
".. c #DACCF1",
"X. c #DBCEF2",
"o. c #DCD0F2",
"O. c #DFD3F3",
"+. c #E0D6F3",
"@. c #E0D5F4",
"#. c #E1D7F4",
"$. c #E2D8F4",
"%. c #E3D9F4",
"&. c #E3D9F5",
"*. c #E3DAF5",
"=. c #E5DCF5",
"-. c #E6DDF6",
";. c #E6DEF6",
":. c #E7DFF6",
">. c #E9E1F7",
",. c #E9E2F7",
"<. c #EEE9F8",
"1. c #EEE9F9",
"2. c #EFEAF9",
"3. c #F1ECFA",
"4. c #F3EFFB",
"5. c #F9F7FD",
"6. c #FAF8FD",
"7. c #FCFBFE",
"8. c #FEFEFF",
"9. c white",
"0. c None",
/* pixels */
"0.0.0.0.0.d 9 9 6 9 s 0.0.0.0.0.",
"0.0.0.y y q k d d h q y y 0.0.0.",
"0.0.y y y , m 2.2.B , y y y 0.0.",
"0.y y y d   m 8.8.B   a y y y 0.",
"0.y y d @ w 8. .Q 8.y @ d y y 0.",
"y y a & 9 8. .>.C ( 8.0 & d y y ",
"y y 6 6 7.' N :.>.z ) 8.6 6 y y ",
"y y X &.O.v 8.N M 8.x ..=.X y y ",
"t < m 4.D O.{ D Z } &.Z 3.B < y ",
"y @ ! _ [ U H &.&.F U [ _ ~ @ y ",
"y & H o.P <.g U U f 2.U X.K $ y ",
"0.0 6 6.R P O.~ ~ +.I I 5.9 q 0.",
"0.a & M 8.E K ~ ~ K E 8.B $ a 0.",
"0.0.a O h :.&.[ [ #.:.k X a 0.0.",
"0.0.0.a , & v K K x , , a 0.0.0.",
"0.0.0.0.0.w 6 & & 6 w 0.0.0.0.0."
};
