/* XPM */
static char *_558550974635[] = {
/* columns rows colors chars-per-pixel */
"128 128 56 1 ",
"  c #5013BE",
". c #581EC2",
"X c #5E26C4",
"o c #5F28C4",
"O c #632CC5",
"+ c #6631C7",
"@ c #6834C7",
"# c #6A36C8",
"$ c #6D3BC9",
"% c #703FCA",
"& c #7443CC",
"* c #7748CD",
"= c #7A4CCE",
"- c #7D50CF",
"; c #7F52D0",
": c #8054D0",
"> c #855BD2",
", c #885FD3",
"< c #8C64D5",
"1 c #8F68D5",
"2 c #926CD7",
"3 c #9672D8",
"4 c #9976D9",
"5 c #9D7BDB",
"6 c #A07FDC",
"7 c #A383DD",
"8 c #A788DF",
"9 c #A98ADF",
"0 c #AB8EE0",
"q c #AE92E1",
"w c #B196E2",
"e c #B59BE4",
"r c #B89FE5",
"t c #BBA4E6",
"y c #BFA8E7",
"u c #BFA9E8",
"i c #C2ACE8",
"p c #C5B2EA",
"a c #C9B6EB",
"s c #CDBBED",
"d c #D0BFED",
"f c #D2C3EF",
"g c #D5C7F0",
"h c #D6C9F0",
"j c #DACDF1",
"k c #DDD2F3",
"l c #E1D6F4",
"z c #E5DBF5",
"x c #E9E2F7",
"c c #ECE5F8",
"v c #EEE9F9",
"b c #F2EDFA",
"n c #F5F2FC",
"m c #F8F6FD",
"M c #FFFFFF",
"N c None",
/* pixels */
"NNNNNNNNNNNNNNNNNNNNNNNNNNNNNNNNNNNNNNNNNNNNNNNNNNNNNNNNNN------------NNNNNNNNNNNNNNNNNNNNNNNNNNNNNNNNNNNNNNNNNNNNNNNNNNNNNNNNNN",
"NNNNNNNNNNNNNNNNNNNNNNNNNNNNNNNNNNNNNNNNNNNNNNNNNNN--------------------------NNNNNNNNNNNNNNNNNNNNNNNNNNNNNNNNNNNNNNNNNNNNNNNNNNN",
"NNNNNNNNNNNNNNNNNNNNNNNNNNNNNNNNNNNNNNNNNNNNNNN---------=------------------------NNNNNNNNNNNNNNNNNNNNNNNNNNNNNNNNNNNNNNNNNNNNNNN",
"NNNNNNNNNNNNNNNNNNNNNNNNNNNNNNNNNNNNNNNNNNNN-----------------------------------------NNNNNNNNNNNNNNNNNNNNNNNNNNNNNNNNNNNNNNNNNNN",
"NNNNNNNNNNNNNNNNNNNNNNNNNNNNNNNNNNNNNNNNN---------=---------------------;=-------------NNNNNNNNNNNNNNNNNNNNNNNNNNNNNNNNNNNNNNNNN",
"NNNNNNNNNNNNNNNNNNNNNNNNNNNNNNNNNNNNNN------------;-------------------------------=;------NNNNNNNNNNNNNNNNNNNNNNNNNNNNNNNNNNNNNN",
"NNNNNNNNNNNNNNNNNNNNNNNNNNNNNNNNNNNN--------------------------------------------------------NNNNNNNNNNNNNNNNNNNNNNNNNNNNNNNNNNNN",
"NNNNNNNNNNNNNNNNNNNNNNNNNNNNNNNNNN------------------------------------------------------------NNNNNNNNNNNNNNNNNNNNNNNNNNNNNNNNNN",
"NNNNNNNNNNNNNNNNNNNNNNNNNNNNNNNN--------;=------------------------------------------------------NNNNNNNNNNNNNNNNNNNNNNNNNNNNNNNN",
"NNNNNNNNNNNNNNNNNNNNNNNNNNNNNNN-------------------------------------------------;=-----------;=--NNNNNNNNNNNNNNNNNNNNNNNNNNNNNNN",
"NNNNNNNNNNNNNNNNNNNNNNNNNNNNN----------;-----------------------------------------------------------NNNNNNNNNNNNNNNNNNNNNNNNNNNNN",
"NNNNNNNNNNNNNNNNNNNNNNNNNNNN-----------=------------------------------------------------------------NNNNNNNNNNNNNNNNNNNNNNNNNNNN",
"NNNNNNNNNNNNNNNNNNNNNNNNNN---------------------------==-----------------:===--------------------------NNNNNNNNNNNNNNNNNNNNNNNNNN",
"NNNNNNNNNNNNNNNNNNNNNNNNN--------------------------=:$@O#*-----------;*@O@$----------------------------NNNNNNNNNNNNNNNNNNNNNNNNN",
"NNNNNNNNNNNNNNNNNNNNNNNN----------=-----------;=---*>fat5-+$--=----:%O=4tpf1&--------------------------;NNNNNNNNNNNNNNNNNNNNNNNN",
"NNNNNNNNNNNNNNNNNNNNNNN-----------;----------------=#xMMMbi<O=:--;=O:tbMMMb$=---------;=---------------=--NNNNNNNNNNNNNNNNNNNNNN",
"NNNNNNNNNNNNNNNNNNNNN---------------=;--------------#<MMMMMMe@&-;*O0mMMMMM3+:=-------------=;--------------NNNNNNNNNNNNNNNNNNNNN",
"NNNNNNNNNNNNNNNNNNNN---------------------------------+jMMMMMMsO*=OtMMMMMMz$=--------------------------------NNNNNNNNNNNNNNNNNNNN",
"NNNNNNNNNNNNNNNNNNN---=------------------------------OqMMMMMMMpOOwMMMMMMMtO---------------------=;-----------NNNNNNNNNNNNNNNNNNN",
"NNNNNNNNNNNNNNNNNN----;------;=----------------------$<MMMMMMMM1-MMMMMMMM3#-----------------------------------NNNNNNNNNNNNNNNNNN",
"NNNNNNNNNNNNNNNNN------------------------------------=*xMMMMMMMcxMMMMMMMn=*-------------------=----------------NNNNNNNNNNNNNNNNN",
"NNNNNNNNNNNNNNNN---------------------;=--------------=$jMMMMMMMMMMMMMMMMl*==------------------;-----------------NNNNNNNNNNNNNNNN",
"NNNNNNNNNNNNNNN---------------------------=-----------#sMMMMMMMMMMMMMMMMk%=--------------------------------------NNNNNNNNNNNNNNN",
"NNNNNNNNNNNNNNN---------------------------;----------=#aMMMMMMMMMMMMMMMMk$=--------------------------;=----------NNNNNNNNNNNNNNN",
"NNNNNNNNNNNNNN----------------------------------------$fMMMMMMMMMMMMMMMMl&==--------------------------=;----=;----NNNNNNNNNNNNNN",
"NNNNNNNNNNNNN----------------------------------------=&zMMMMMMMMMMMMMMMMb=*----------------------------------------NNNNNNNNNNNNN",
"NNNNNNNNNNNN------------=----------------------------$>mMMMMMMMMMMMMMMMMM2#-----;=--;-------------------------------NNNNNNNNNNNN",
"NNNNNNNNNNNN----------------------------------------;orMMMMMMMMMMMMMMMMMMpO;--------=-------------------------------NNNNNNNNNNNN",
"NNNNNNNNNNN-----------------------------------------&=nMMMMMMMMMMMMMMMMMMM>#;;------------=;-------------------------NNNNNNNNNNN",
"NNNNNNNNNN------------------------------------------XpMMMMMMMMMMMMMMMMMMMMhO-=-------------------------------;=-------NNNNNNNNNN",
"NNNNNNNNNN----------------------------------------:+1MMMMMMMMMMMMMMMMMMMMMM5O;-------------------=--------------------NNNNNNNNNN",
"NNNNNNNNN------;=--------------------------------:$#cMMMMMMMMMMMMMMMMMMMMMMn*#;------------------;---------------------NNNNNNNNN",
"NNNNNNNN----------------------------------------;*OfMMMMMMMMMMMbvMMMMMMMMMMMl+&-----------------------------=;----------NNNNNNNN",
"NNNNNNNN----------------------------------------=XtMMMMMMMMMMMM<:MMMMMMMMMMMMsO=----------------------------------------NNNNNNNN",
"NNNNNNN----------------------------=--;=-------;O5MMMMMMMMMMMMiooyMMMMMMMMMMMM9o-----------------------------------------NNNNNNN",
"NNNNNNN----------------------------;---------;:O>MMMMMMMMMMMMj+**+jMMMMMMMMMMMM2O:---------------------------------------NNNNNNN",
"NNNNNN----------------------=;---------------;@*bMMMMMMMMMMMz$$:;$$cMMMMMMMMMMMM>O:--------------------=------------------NNNNNN",
"NNNNNN------=;------------------------------;$&xMMMMMMMMMMMc#@:--;#=cMMMMMMMMMMMb;#:-------------------;-----;=-----------NNNNNN",
"NNNNN--------------------------------------;%#zMMMMMMMMMMMMn7O=---;+=nMMMMMMMMMMMb%#:-----------------------------=--------NNNNN",
"NNNNN-------------------------------------:&OfMMMMMMMMMMMMMMM8X=---:@:mMMMMMMMMMMMl$$:----------------------------;--------NNNNN",
"NNNNN------------------------------------;*OaMMMMMMMMMMMMMMMMM8X=---:O>nMMMMMMMMMMMh+%-------------------------------------NNNNN",
"NNNN------------------------------------;*OiMMMMMMMMMMMMMMMMMMM8O=:--:O>bMMMMMMMMMMMf+&:------------------------------------NNNN",
"NNNN------------------------------------=oiMMMMMMMMMMMMMMMMMMMMM0X=----@*cMMMMMMMMMMMdO&--------=---=;----------------------NNNN",
"NNN-------=;----=----------------------=XeMMMMMMMMMMMnlMMMMMMMMMM8X=---:+=xMMMMMMMMMMMpO*-------;----------------------------NNN",
"NNN-----------------------------------=OwMMMMMMMMMMMM>OlMMMMMMMMMM8o=---:@&lMMMMMMMMMMMuo=-----------------=;------=---------NNN",
"NNN----------------------------------=X9MMMMMMMMMMMM2O$#hMMMMMMMMMM9X=---:#$fMMMMMMMMMMMrX*------------------------;--=;-----NNN",
"NNN-------=;------------------------=O9MMMMMMMMMMMm>O;:$@gMMMMMMMMMMwO=---:$+iMMMMMMMMMMMtO=----------------------------------NN",
"NN----------------------------------o7MMMMMMMMMMMn:O:=-:$XlMMMMMMMMMMqo=---;&OyMMMMMMMMMMMqX----------------------------------NN",
"NN--------------------------------=O5MMMMMMMMMMMv-+:---=O5bMMMMMMMMMMMwX=;--;*owMMMMMMMMMMM0X=--------------------------------NN",
"NN--------------------------------O4MMMMMMMMMMMz*+:--;=X9MMMMMMMMMMMMMMeX*;=-;*O8MMMMMMMMMMM8o--------------------------------NN",
"NN--------------=--------------=:O2MMMMMMMMMMMf$#:--;*OwMMMMMMMMMMMMMMMMtO*;---=X2MMMMMMMMMMM5O=-------------------------;----NN",
"N---------------;--------------:O<MMMMMMMMMMMf+$:--;*orMMMMMMMMMMMMMMMMMMiO&:----X2MMMMMMMMMMM4X;------------------------=-----N",
"N---------=-------------------:+>mMMMMMMMMMMs+&:---&OyMMMMMMMMMMMMMMMMMMMMa+$:;=-;O<MMMMMMMMMMM1O:;=--------------=;-----------N",
"N---------;------------------;#=nMMMMMMMMMMiO&--=:$+sMMMMMMMMcy88tzMMMMMMMMh$#:;--;O>nMMMMMMMMMM>O:;--------=------------------N",
"N-----=;------------;=------;%$xMMMMMMMMMMtO&---:#*kMMMMMMMMt&O++O$eMMMMMMMMz-+;----O-nMMMMMMMMMb*$;---------------------------N",
"N---------------------------*OgMMMMMMMMMMtX*:---O=vMMMMMMMMeX%--=;&.0MMMMMMMMm:O:---:+:mMMMMMMMMMk+&;--------------------------N",
"N---------------------------otMMMMMMMMMMiO*----O>bMMMMMMMMkO*------=OgMMMMMMMMm<O----:+<MMMMMMMMMMpO=--------------------------N",
"N-------------------------:O3MMMMMMMMMMaO&:=-=O<mMMMMMMMMM7O:-------+2MMMMMMMMMM2X=----O2MMMMMMMMMM7O;---------------------;----",
"--------------------------&&nMMMMMMMMMsO&:---O5MMMMMMMMMMm:&--------&=bMMMMMMMMMM8O=:---O5MMMMMMMMMM=$---------------------=----",
"---------;=--;=----------=OaMMMMMMMMMkO&:---X5MMMMMMMMMMMb=*-------==*xMMMMMMMMMMM8X=--:=XwMMMMMMMMMhO---------------=----------",
"----------------------=;:#<MMMMMMMMMb&$:---O4MMMMMMMMMMMMM,$--------&=mMMMMMMMMMMMM7o----=ofMMMMMMMMM3+;------------------;=----",
"----;=----------------;==OkMMMMMMMMM<+:---o2MMMMMMMMMMMMMMwX:-----=:O7MMMMMMMMMMMMMM5X-;-;&#cMMMMMMMMx#=------------------------",
"-----------------------;+6MMMMMMMMMqX:=-:O2MMMMMMMMMMMMMMMc$#:--==:&OzMMMMMMMMMMMMMMM5O;--;+>MMMMMMMMMqO;-----------------------",
"----------------=;-----=$cMMMMMMMMjO==-:@>MMMMMMMMMMMMMMMMMj@&--:;*OsMMMMMMMMMMMMMMMMM1O;--;OwMMMMMMMMb&*-----------------------",
"-;---------------------+5MMMMMMMMm=$;-;$$cMMMMMMMMbpMMMMMMMMz-&-=**gMMMMMMMMhbMMMMMMMMn*$;=-=OzMMMMMMMM8O-----------------------",
"-=-----------;=--------+fMMMMMMMMqX:=-=OfMMMMMMMMM> pMMMMMMMM2%-;*;MMMMMMMMk.>MMMMMMMMMjO=---@1MMMMMMMMl#=-------------------=--",
"----------------------&>MMMMMMMMz#==-:O8MMMMMMMMM4O&OsMMMMMMz&*---#fMMMMMMl@$O4MMMMMMMMMwO:---osMMMMMMMM2$----------------------",
"----------------------OwMMMMMMMM7O;-:$=MMMMMMMMM9X--&OfMMMMMf@----+pMMMMMz%$:-XqMMMMMMMMM>#:--$<MMMMMMMMtO----------------------",
"----------------------+fMMMMMMMx$==--OfMMMMMMMMsX==-:&XgMMMMiO----OwMMMMz##:--=OsMMMMMMMMk@==;-OfMMMMMMMl$=---------------------",
"---------------------&:mMMMMMMMeO---@2MMMMMMMMl+*;---+>zMMMM7@----@3MMMMx:@:--=&#zMMMMMMMM5+---+5MMMMMMMM,&=--------------------",
"N------;-------------$4MMMMMMMM>%---OjMMMMMMMM:+:--:@>MMMMMM2$----%<MMMMMM>+:--:+>MMMMMMMMl#=--=*bMMMMMMM7@---------------------",
"N------=------------=+eMMMMMMMk$=--%<MMMMMMMMrX;---%&bMMMMMm>&----=*xMMMMMb&&----XtMMMMMMMM3#---OpMMMMMMMi+-----------=;-------N",
"N----------=;-------=@sMMMMMMMeO--:OrMMMMMMMb&*----OfMMMMMMk$=----;+aMMMMMMsO-=;-&*nMMMMMMMiO---+8MMMMMMMf#=---=-----;---------N",
"N-------------------=$hMMMMMMM7@--=$jMMMMMMMeO:---#2MMMMMMMyO------OwMMMMMMM1#---;otMMMMMMMz&=--%1MMMMMMMl&=---------=---------N",
"N-------------------=*zMMMMMMM>%--*-nMMMMMMM>%---=@fMMMMMMMq+------@8MMMMMMMs+----$<MMMMMMMM>&--=&zMMMMMMn:*-------------------N",
"N-------------------&:nMMMMMMx&=--$2MMMMMMMk#=---&>MMMMMMMM3$=-----$,MMMMMMMm:*--==$kMMMMMMM6@--=#fMMMMMMM<$-------------------N",
"N-------------=-----%>MMMMMMMj$=-;+7MMMMMMMi+---=$3MMMMMMMm*X$**=*&X$bMMMMMMM2$----+pMMMMMMM0@=-=#sMMMMMMM1$=------------------N",
"NN----;=------;-----&,mMMMMMMj$=-=#8MMMMMMMtO----$2MMMMMMMMzw<&&&&>8jMMMMMMMM1$----+tMMMMMMMq@--=#sMMMMMMM2%-------------------N",
"NN----------------=;&,MMMMMMMj$=--+8MMMMMMMtO----=*cMMMMMMMMMMxzlzmMMMMMMMMMz&=----OtMMMMMMMq+--;#sMMMMMMM1$------------------NN",
"NN----------------;=&:nMMMMMMk%=--#5MMMMMMMp+-----O8MMMMMMMMMMMMMMMMMMMMMMMM7O;----+pMMMMMMM9@--=#fMMMMMMM<%------------------NN",
"NN------------------==xMMMMMMn=*--&>mMMMMMMz$==---=+jMMMMMMMMMMMMMMMMMMMMMMfO=----=$zMMMMMMM2$--=$jMMMMMMm>&----=-------------NN",
"NN------------------=$kMMMMMMM2$--=*cMMMMMMM1#-----%$kMMMMMMMMMMMMMMMMMMMMj$&:----+2MMMMMMMn-&--==nMMMMMMx*=----;-----------=;NN",
"NNN-----=-----------=#fMMMMMMM9+--=+sMMMMMMMsO-----:%$tMMMMMMMMMMMMMMMMMMt@&-----=OfMMMMMMMj#---@4MMMMMMMh$=-----------------NNN",
"NNN-----;-----------=+tMMMMMMMiO---+7MMMMMMMM4O:----:&O,ibMMMMMMMMMMMMby>O&:----:O5MMMMMMMMqO---OeMMMMMMMs+=-----------------NNN",
"NNN------------------#5MMMMMMMx&=--*=nMMMMMMMm=+:------$+-8plbMMMMblp8=O$:-----:+;mMMMMMMMM:&--=#hMMMMMMM0+=-----------------NNN",
"NNNN-----------------$<MMMMMMMM1$---OtMMMMMMMMx*+;-------&+@&-<44<=&++*:------;O*xMMMMMMMMaO---&:MMMMMMMM2$-----------------NNNN",
"NNNN---------;-------=$lMMMMMMMtO---&-MMMMMMMMMc:O=:--------=&&#@&*=--=-----;=o>vMMMMMMMMM>$--:O0MMMMMMMc===----------------NNNN",
"NNNNN--------=--------OtMMMMMMMb&&---O9MMMMMMMMMm7O@--------=----=---------=@+5MMMMMMMMMMrO:--=@zMMMMMMMpO------------=;----NNNN",
"NNNNN----------=------$1MMMMMMMMqO:--=OgMMMMMMMMMMs1+@=--=-----------=;;-=@+1sMMMMMMMMMMlO=---+5MMMMMMMM4@=----------------NNNNN",
"NNNNN----------;------=#lMMMMMMMv$*--;$&nMMMMMMMMMMMs2%O#&===-------==&+O$2fMMMMMMMMMMMM=#--==+zMMMMMMMv&*;----------------NNNNN",
"NNNNNN-----------------OqMMMMMMMMeX;--:@,MMMMMMMMMMMMMly5>&@#O+++@++#*>5ylMMMMMMMMMMMMM2O:---O8MMMMMMMMtO;--------;-------NNNNNN",
"NNNNNN-----------------*&nMMMMMMMM>@:---O1mMMMMMMMMMMMMMMmzspywqqwtpszmMMMMMMMMMMMMMMM3O---:$*nMMMMMMMM=&-----=;--=-------NNNNNN",
"NNNNNNN----------------;OqMMMMMMMMc$%-=-:O>zMMMMMMMMMMMMMMMMMMMMMMMMMMMMMMMMMMMMMMMMv<O;:--&+kMMMMMMMMtO:=;-;=-----------NNNNNNN",
"NNNNNNN-----------------*@xMMMMMMMMdX=:--:@$sMMMMMMMMMMMMMMMMMMMMMMMMMMMMMMMMMMMMMMf*O;---=XiMMMMMMMMn%*-----------------NNNNNNN",
"NNNNNNNN-=--------------;+5MMMMMMMMMeX=---:%+9nMMMMMMMMMMMMMMMMMMMMMMMMMMMMMMMMMMMq#$:----X8MMMMMMMMM0O;----------------NNNNNNNN",
"NNNNNNNN-;--------------==OfMMMMMMMMM0X*:--:=O=tmMMMMMMMMMMMMMMMMMMMMMMMMMMMMMMMi:O*-=-:=X7MMMMMMMMMk+==----------------NNNNNNNN",
"NNNNNNNNN-----------------&*nMMMMMMMMMeO&;;=-;&O>tvMMMMMMMMMMMMMMMMMMMMMMMMMMni<+$:----*O9MMMMMMMMMM-#;----------------NNNNNNNNN",
"NNNNNNNNNN----------------:O3MMMMMMMMMMs+#;;--=-$O=8sMMMMMMMMMMMMMMMMMMMMMMf8-O$---=-;$OiMMMMMMMMMM8O;-----------------NNNNNNNNN",
"NNNNNNNNNN-------;----------OtMMMMMMMMMMj=o=;-;=--*@+,9szmMMMMMMMMMMMMmxsq1++&-----;=O*fMMMMMMMMMMsO=-----------------NNNNNNNNNN",
"NNNNNNNNNNN------=--;=------*OsMMMMMMMMMMm7#@--;-----%++*>6qrisggsieq7<&@+$--=-----#+5bMMMMMMMMMMj@&;----------=-----NNNNNNNNNNN",
"NNNNNNNNNNN------------------&+fMMMMMMMMMMMj2O#=--------=&+@O+#$$$+O+@&*---------$O<fMMMMMMMMMMMl#$:-----------------NNNNNNNNNNN",
"NNNNNNNNNNNN-----------------:%#jMMMMMMMMMMMMs<+@=--------=---====------------=#+,iMMMMMMMMMMMMl&$:-----------------NNNNNNNNNNNN",
"NNNNNNNNNNNNN-----------------:$#jMMMMMMMMMMMMMs2&O$=----------------------=$O$1pMMMMMMMMMMMMMz&@;--------=--------NNNNNNNNNNNNN",
"NNNNNNNNNNNNNN-----------------:%#iMMMMMMMMMMMMMMkw<&++$==------------==$+O&<qkMMMMMMMMMMMMMMf$$:---------;-------NNNNNNNNNNNNNN",
"NNNNNNNNNNNNNN------------------:&O8MMMMMMMMMMMMMMMMzi7<*$+O+@@@@@@+++$*>7tlMMMMMMMMMMMMMMMMwO$:------------------NNNNNNNNNNNNNN",
"NNNNNNNNNNNNNNN------------------;=o1zMMMMMMMMMMMMMMMMMMxkieq8756799wijxMMMMMMMMMMMMMMMMMMc3o=;------------------NNNNNNNNNNNNNNN",
"NNNNNNNNNNNNNNNN-------------------;+%iMMMMMMMMMMMMMMMMMMMMMMMMMMMMMMMMMMMMMMMMMMMMMMMMMMs*O--------------------NNNNNNNNNNNNNNNN",
"NNNNNNNNNNNNNNNNN-------------------;&O2kMMMMMMMMMMMMMMMMMMMMMMMMMMMMMMMMMMMMMMMMMMMMMMz5O&;-------------------NNNNNNNNNNNNNNNNN",
"NNNNNNNNNNNNNNNNNN---------------------+$8xMMMMMMMMMMMMMMMMMMMMMMMMMMMMMMMMMMMMMMMMMMcq&O-;-------------------NNNNNNNNNNNNNNNNNN",
"NNNNNNNNNNNNNNNNNNN--------------------;=O&7kMMMMMMMMMMMMMMMMMMMMMMMMMMMMMMMMMMMMMMl0=O*;--------------------NNNNNNNNNNNNNNNNNNN",
"NNNNNNNNNNNNNNNNNNNN---=-----------------;*O$3sMMMMMMMMMMMMMMMMMMMMMMMMMMMMMMMMMMf4&O*----------------------NNNNNNNNNNNNNNNNNNNN",
"NNNNNNNNNNNNNNNNNNNNN----------------------;=++>qfmMMMMMMMMMMMMMMMMMMMMMMMMMMMjw<#+*;----------------------NNNNNNNNNNNNNNNNNNNNN",
"NNNNNNNNNNNNNNNNNNNNNN-------------------------&O$>5ihnMMMMMMMMMMMMMMMMMMnji7>$O$=;-----------------------NNNNNNNNNNNNNNNNNNNNNN",
"NNNNNNNNNNNNNNNNNNNNNNN--------------------------=&@+#;15risfjklzkjfspr52>$++&=--;-----------------------NNNNNNNNNNNNNNNNNNNNNNN",
"NNNNNNNNNNNNNNNNNNNNNNNNN----------------=-----------=*$#++#$$$*&%%$#@+@$&=------=---------------------NNNNNNNNNNNNNNNNNNNNNNNNN",
"NNNNNNNNNNNNNNNNNNNNNNNNNN------;=-----------------------=--=========-=-=-----------------------------NNNNNNNNNNNNNNNNNNNNNNNNNN",
"NNNNNNNNNNNNNNNNNNNNNNNNNNN--------------------------------------------------------------------------NNNNNNNNNNNNNNNNNNNNNNNNNNN",
"NNNNNNNNNNNNNNNNNNNNNNNNNNNNN----------------------------------------------------------------------NNNNNNNNNNNNNNNNNNNNNNNNNNNNN",
"NNNNNNNNNNNNNNNNNNNNNNNNNNNNNN--------------------------------------------------------------------NNNNNNNNNNNNNNNNNNNNNNNNNNNNNN",
"NNNNNNNNNNNNNNNNNNNNNNNNNNNNNNNN----------------------------------------------------------------NNNNNNNNNNNNNNNNNNNNNNNNNNNNNNNN",
"NNNNNNNNNNNNNNNNNNNNNNNNNNNNNNNNNN---------------------------------;------------------=;------NNNNNNNNNNNNNNNNNNNNNNNNNNNNNNNNNN",
"NNNNNNNNNNNNNNNNNNNNNNNNNNNNNNNNNNNN-------------------------------=------------------------NNNNNNNNNNNNNNNNNNNNNNNNNNNNNNNNNNNN",
"NNNNNNNNNNNNNNNNNNNNNNNNNNNNNNNNNNNNNN----------------------------------------------------NNNNNNNNNNNNNNNNNNNNNNNNNNNNNNNNNNNNNN",
"NNNNNNNNNNNNNNNNNNNNNNNNNNNNNNNNNNNNNNNN------------------------------------------------NNNNNNNNNNNNNNNNNNNNNNNNNNNNNNNNNNNNNNNN",
"NNNNNNNNNNNNNNNNNNNNNNNNNNNNNNNNNNNNNNNNNNN------------------------------------------NNNNNNNNNNNNNNNNNNNNNNNNNNNNNNNNNNNNNNNNNNN",
"NNNNNNNNNNNNNNNNNNNNNNNNNNNNNNNNNNNNNNNNNNNNNN------------------------------------NNNNNNNNNNNNNNNNNNNNNNNNNNNNNNNNNNNNNNNNNNNNNN",
"NNNNNNNNNNNNNNNNNNNNNNNNNNNNNNNNNNNNNNNNNNNNNNNNNN-----------=----------------NNNNNNNNNNNNNNNNNNNNNNNNNNNNNNNNNNNNNNNNNNNNNNNNNN",
"NNNNNNNNNNNNNNNNNNNNNNNNNNNNNNNNNNNNNNNNNNNNNNNNNNNNNNNN----------------NNNNNNNNNNNNNNNNNNNNNNNNNNNNNNNNNNNNNNNNNNNNNNNNNNNNNNNN"
};
