/* XPM */
static char *_558550998402[] = {
/* columns rows colors chars-per-pixel */
"32 32 243 2 ",
"   c #3F00B8",
".  c #4000B8",
"X  c #4606BA",
"o  c #490ABC",
"O  c #4B0DBC",
"+  c #4B0DBD",
"@  c #4C0DBD",
"#  c #4D0FBD",
"$  c #4D10BD",
"%  c #5115BF",
"&  c #5318BF",
"*  c #5418BF",
"=  c #5318C0",
"-  c #5419C0",
";  c #551AC0",
":  c #561CC1",
">  c #571DC1",
",  c #581EC1",
"<  c #581FC1",
"1  c #5920C2",
"2  c #5A21C2",
"3  c #5B22C2",
"4  c #5B23C3",
"5  c #5C23C3",
"6  c #5C24C3",
"7  c #5D25C3",
"8  c #5E26C3",
"9  c #5E27C4",
"0  c #5F27C4",
"q  c #5F28C4",
"w  c #6029C4",
"e  c #622BC5",
"r  c #622CC5",
"t  c #632CC5",
"y  c #632DC5",
"u  c #632EC6",
"i  c #642EC6",
"p  c #642FC6",
"a  c #6530C6",
"s  c #6631C6",
"d  c #6632C7",
"f  c #6732C7",
"g  c #6733C7",
"h  c #6833C7",
"j  c #6834C7",
"k  c #6835C7",
"l  c #6A36C8",
"z  c #6A37C8",
"x  c #6B37C8",
"c  c #6B38C8",
"v  c #6B38C9",
"b  c #6C3AC9",
"n  c #6D3AC9",
"m  c #6D3BC9",
"M  c #6E3BCA",
"N  c #6E3CC9",
"B  c #6E3CCA",
"V  c #6F3DCA",
"C  c #6F3ECA",
"Z  c #703ECA",
"A  c #703FCA",
"S  c #7140CB",
"D  c #7241CA",
"F  c #7242CB",
"G  c #7342CB",
"H  c #7343CB",
"J  c #7443CB",
"K  c #7443CC",
"L  c #7444CC",
"P  c #7545CC",
"I  c #7647CC",
"U  c #7747CC",
"Y  c #7647CD",
"T  c #7748CD",
"R  c #7849CD",
"E  c #794ACD",
"W  c #794BCD",
"Q  c #794BCE",
"!  c #7A4CCE",
"~  c #7B4DCE",
"^  c #7B4ECE",
"/  c #7C4FCF",
"(  c #7D4FCF",
")  c #7C50CF",
"_  c #7D50CF",
"`  c #7D51CF",
"'  c #7E51CF",
"]  c #7E52CF",
"[  c #7E52D0",
"{  c #7F52D0",
"}  c #7F53D0",
"|  c #8053D0",
" . c #8054D0",
".. c #8055D0",
"X. c #8156D0",
"o. c #8156D1",
"O. c #8256D1",
"+. c #8257D1",
"@. c #8258D1",
"#. c #8358D1",
"$. c #8459D1",
"%. c #875DD2",
"&. c #875DD3",
"*. c #885ED3",
"=. c #885FD3",
"-. c #8860D3",
";. c #8960D3",
":. c #8A61D3",
">. c #8B63D4",
",. c #8D65D5",
"<. c #8D66D5",
"1. c #8E67D5",
"2. c #8E68D5",
"3. c #916BD6",
"4. c #926DD7",
"5. c #936DD7",
"6. c #936ED7",
"7. c #936FD7",
"8. c #946FD7",
"9. c #9672D8",
"0. c #9773D9",
"q. c #9874D9",
"w. c #9976D9",
"e. c #9A77DA",
"r. c #9A78DA",
"t. c #9B79DA",
"y. c #9D7BDB",
"u. c #9E7CDB",
"i. c #9F7DDB",
"p. c #9F7EDC",
"a. c #A07FDC",
"s. c #A181DC",
"d. c #A283DD",
"f. c #A384DD",
"g. c #A586DE",
"h. c #A889DF",
"j. c #A88ADF",
"k. c #A98CDF",
"l. c #AA8DE0",
"z. c #AB8EE0",
"x. c #AC90E0",
"c. c #AD91E0",
"v. c #AD91E1",
"b. c #AE92E1",
"n. c #AF93E1",
"m. c #B094E2",
"M. c #B095E2",
"N. c #B297E3",
"B. c #B399E3",
"V. c #B49AE3",
"C. c #B69CE4",
"Z. c #B89FE5",
"A. c #B8A0E5",
"S. c #B9A0E5",
"D. c #B9A1E5",
"F. c #B9A2E5",
"G. c #BAA2E5",
"H. c #BAA3E5",
"J. c #BAA1E6",
"K. c #BBA3E6",
"L. c #BBA4E6",
"P. c #BDA6E6",
"I. c #BCA6E7",
"U. c #BEA7E7",
"Y. c #BEA8E7",
"T. c #BFA9E7",
"R. c #BFAAE8",
"E. c #C0ABE8",
"W. c #C1ACE8",
"Q. c #C2ACE8",
"!. c #C2ADE8",
"~. c #C3AFE9",
"^. c #C4AFE9",
"/. c #C4B0E9",
"(. c #C5B1EA",
"). c #C6B2EA",
"_. c #C6B3EA",
"`. c #C7B4EA",
"'. c #C8B4EA",
"]. c #C9B6EB",
"[. c #CAB7EB",
"{. c #CBB9EC",
"}. c #CBBAEC",
"|. c #CCBAEC",
" X c #CDBDED",
".X c #CEBDED",
"XX c #CFBFED",
"oX c #D0BFED",
"OX c #D1C2EE",
"+X c #D2C3EE",
"@X c #D3C4EE",
"#X c #D3C4EF",
"$X c #D5C7F0",
"%X c #D9CDF1",
"&X c #DACDF1",
"*X c #DDD1F3",
"=X c #DDD2F2",
"-X c #DED3F3",
";X c #DFD4F3",
":X c #DFD5F3",
">X c #E1D6F4",
",X c #E1D7F4",
"<X c #E2D8F4",
"1X c #E4DAF5",
"2X c #E4DBF5",
"3X c #E6DEF6",
"4X c #E7DFF6",
"5X c #E8DFF6",
"6X c #E8E0F6",
"7X c #E8E1F7",
"8X c #EAE2F7",
"9X c #EAE3F7",
"0X c #EBE4F7",
"qX c #EBE5F7",
"wX c #EAE3F8",
"eX c #EBE4F8",
"rX c #EBE5F8",
"tX c #ECE6F8",
"yX c #EDE7F8",
"uX c #F1ECFA",
"iX c #F2EEFA",
"pX c #F3EFFB",
"aX c #F4F0FB",
"sX c #F4F1FB",
"dX c #F5F1FB",
"fX c #F6F3FC",
"gX c #F7F4FC",
"hX c #F8F6FC",
"jX c #F8F7FD",
"kX c #F9F7FD",
"lX c #FAF7FD",
"zX c #F9F8FD",
"xX c #FAF8FD",
"cX c #FBF9FE",
"vX c #FCFBFE",
"bX c #FDFCFE",
"nX c #FDFDFE",
"mX c #FEFDFE",
"MX c #FEFDFF",
"NX c #FEFEFF",
"BX c #FFFEFF",
"VX c white",
"CX c None",
/* pixels */
"CXCXCXCXCXCXCXCXCXCXCXCX_ _ _ _ _ _ _ _ CXCXCXCXCXCXCXCXCXCXCXCX",
"CXCXCXCXCXCXCXCXCX_ _ _ _ _ _ _ _ _ _ _ _ _ _ CXCXCXCXCXCXCXCXCX",
"CXCXCXCXCXCXCXCX_ _ _ _ +.b x _ _ j m +._ _ _ _ _ CXCXCXCXCXCXCX",
"CXCXCXCXCXCX_ _ _ _ _ _ Y k.a.j j a.k.Y / _ _ _ _ _ CXCXCXCXCXCX",
"CXCXCXCXCX_ _ _ _ _ _ _ i ~.VXc.k.VX`.i _ _ _ _ _ _ _ CXCXCXCXCX",
"CXCXCXCX_ _ _ _ _ _ _ _ b >.VXVXVXVX2.j _ _ _ _ _ _ _ _ CXCXCXCX",
"CXCXCX_ _ _ _ _ _ _ _ } i 6.VXVXVXVX0.i | _ _ _ _ _ _ _ _ CXCXCX",
"CXCXCX_ _ _ _ _ _ _ _ Y a %XVXVXVXVX*Xa Y _ _ _ _ _ _ _ _ _ CXCX",
"CXCX_ _ _ _ _ _ _ ] / 7 U.VXVXE.#XVXVX~.7 ^ _ _ _ _ _ _ _ _ CXCX",
"CX_ _ _ _ _ _ _ _ _ 7 j.VXVXVX^ % 0XVXVXz.7 _ _ _ _ _ _ _ _ _ CX",
"CX_ _ _ _ _ _ _ _ q i.VXVXVXVX0Xx 2 0XVXVXs.0 _ _ _ _ _ _ _ _ CX",
"CX_ _ _ _ _ ] _ q q.VXVX0XS +XVXaXx 2 ;XVXVXt.7 _ _ _ _ _ _ _ CX",
"_ _ _ _ _ _ _ y 6.VXVX1X: y 3XVXVXVXm $ $XVXVX0.y _ _ _ _ _ _ _ ",
"_ _ _ _ _ | h %.VXVX;X& T zXVXN.n.VXzX} O +XVXVX:.h X._ _ _ _ _ ",
"_ _ _ _ _ J S iXVX1X# +.VXVXH.# O Z.VXVX:.X %XVXdXS S _ _ _ _ _ ",
"_ _ _ _ _ y U.VXgXw ^ VXVXVXXXv x |.VXVXVX+.: iXVX!.y | _ _ _ _ ",
"_ _ _ _ J _ vXVX3.0 VXVXc.R.VX1.%.VX^.N.VXVXy %.VXVX} S _ _ _ _ ",
"_ _ _ _ g g.VX8X= ].VX+X. c.VX$.} VXn.  +XVXXX% ,XVXz.a _ _ _ _ ",
"_ _ _ _ a L.VXB.a VXVXS +.VXyX< ; 8XVX} J VXVXh c.VXR.i _ _ _ _ ",
"_ _ _ ) a (.VXf.Y VXfX: u.VXzXZ.C.kXVXi.: dXVXW u.VX`.a _ _ _ _ ",
"CX_ _ _ a H.VXA.e bXVX$.* H.bXVXVXVXH.= &.VXVXi B.VXU.i _ _ _ CX",
"CX_ _ _ g i.VXwX* E.VX0XY o Z 5.6.m o T 8XVX(.% 3XVXs.j _ _ _ CX",
"CX_ _ _ Y Y fXVXq.; wXVXVXH.1.W W 2.H.VXVXyX; 0.VXkXW Y _ _ _ CX",
"CXCX_ _ } y z.VXVXZ : XXVXVXVXVXVXVXVXVXXX< b zXVXN.y } _ _ CXCX",
"CXCX_ _ _ W a %XVXkX#.$ +.U.,XiXiX<XU.+.# +.fXVX*Xg W _ / _ CXCX",
"CXCXCX_ _ } Z Z *XVXVX(.^ 2 2 y y 2 2 W ~.VXVX,XS m | _ _ CXCXCX",
"CXCXCXCX_ / +.b m T.VXVXVX8X{.L.L.}.8XVXVXVX~.b b X./ _ CXCXCXCX",
"CXCXCXCXCX/ / +.K y 1.].hXVXVXVXVXVXVXkX].1.a J X._ / CXCXCXCXCX",
"CXCXCXCXCXCX_ _ _ _ v j +.q.c.H.H.N.q.+.j x _ _ _ _ CXCXCXCXCXCX",
"CXCXCXCXCXCXCX_ _ _ _ _ K x f a i a x H _ _ _ _ _ CXCXCXCXCXCXCX",
"CXCXCXCXCXCXCXCXCX_ / } ( } _ _ _ _ _ _ _ _ _ CXCXCXCXCXCXCXCXCX",
"CXCXCXCXCXCXCXCXCXCXCXCX( ^ _ _ _ _ _ _ CXCXCXCXCXCXCXCXCXCXCXCX"
};
